<svg width="278" height="70" viewBox="0 0 278 70" fill="none" xmlns="http://www.w3.org/2000/svg">
<path d="M115.564 28.4486L161.217 28.0002C161.581 27.9963 161.943 28.0648 162.28 28.2019C162.618 28.3389 162.925 28.5417 163.184 28.7985C163.443 29.0553 163.648 29.361 163.788 29.6979C163.929 30.0347 164 30.3961 164 30.761V59.4097C163.998 60.3584 163.623 61.2681 162.955 61.9405C162.286 62.613 161.38 62.9938 160.433 63H160.278L115.442 62.0475C114.515 62.0089 113.639 61.6126 112.997 60.9417C112.356 60.2708 111.998 59.3773 112 58.4484V32.0506C112.003 31.1017 112.378 30.1922 113.045 29.5182C113.712 28.8443 114.617 28.4601 115.564 28.4486ZM115.322 32.7862L131.695 47.5897C132.649 48.4605 133.873 48.9774 135.162 49.0542C136.45 49.131 137.726 48.7631 138.777 48.0118L160.228 32.8448C160.4 32.7231 160.516 32.5381 160.552 32.3303C160.588 32.1226 160.539 31.9091 160.418 31.737C160.297 31.5648 160.112 31.448 159.904 31.4122C159.697 31.3765 159.484 31.4248 159.312 31.5464L137.861 46.7134C137.106 47.2544 136.19 47.5204 135.263 47.4671C134.337 47.4138 133.457 47.0444 132.769 46.4203L116.381 31.6168C116.306 31.5365 116.215 31.4727 116.115 31.4293C116.014 31.3859 115.905 31.3639 115.796 31.3647C115.686 31.3655 115.578 31.3891 115.478 31.4339C115.377 31.4787 115.288 31.5439 115.214 31.6252C115.14 31.7065 115.084 31.8023 115.049 31.9064C115.015 32.0105 115.002 32.1207 115.011 32.2301C115.021 32.3395 115.054 32.4456 115.107 32.5419C115.159 32.6381 115.232 32.7223 115.319 32.7891L115.322 32.7862Z" fill="url(#paint0_linear)" fill-opacity="0.5"/>
<path d="M188.879 0.35885L225.752 0.000124626C226.046 -0.00297778 226.338 0.0518707 226.611 0.161506C226.884 0.271141 227.132 0.433374 227.341 0.638809C227.55 0.844243 227.716 1.0888 227.829 1.35829C227.942 1.62779 228 1.91687 228 2.20879V25.1278C227.999 25.8867 227.695 26.6145 227.156 27.1524C226.616 27.6904 225.884 27.9951 225.119 28H224.993L188.78 27.238C188.031 27.2071 187.324 26.8901 186.806 26.3534C186.287 25.8167 185.999 25.1019 186 24.3587V3.24044C186.002 2.48139 186.306 1.75374 186.844 1.2146C187.383 0.675458 188.114 0.36808 188.879 0.35885ZM188.683 3.82894L201.907 15.6718C202.678 16.3684 203.666 16.7819 204.707 16.8433C205.748 16.9048 206.779 16.6104 207.628 16.0094L224.953 3.87583C225.092 3.77852 225.186 3.63047 225.215 3.46426C225.244 3.29805 225.205 3.1273 225.107 2.98956C225.009 2.85182 224.86 2.75837 224.692 2.72979C224.524 2.70121 224.352 2.73983 224.213 2.83715L206.888 14.9707C206.278 15.4036 205.538 15.6163 204.79 15.5737C204.041 15.531 203.33 15.2355 202.775 14.7363L189.538 2.89342C189.478 2.82922 189.405 2.77815 189.323 2.74345C189.242 2.70874 189.154 2.69115 189.066 2.69178C188.977 2.69242 188.89 2.71126 188.809 2.74712C188.728 2.78299 188.655 2.8351 188.596 2.90016C188.536 2.96522 188.491 3.04182 188.463 3.12511C188.435 3.20841 188.424 3.29659 188.432 3.38409C188.44 3.47159 188.466 3.55651 188.509 3.63348C188.552 3.71045 188.61 3.77781 188.68 3.83128L188.683 3.82894Z" fill="url(#paint1_linear)" fill-opacity="0.3"/>
<path opacity="0.3" d="M250.988 36.2478L276.448 36.0001C276.651 35.9979 276.853 36.0358 277.041 36.1115C277.229 36.1872 277.401 36.2992 277.545 36.4411C277.689 36.5829 277.804 36.7518 277.882 36.9379C277.96 37.1239 278 37.3236 278 37.5251V53.3501C277.999 53.8742 277.79 54.3767 277.417 54.7481C277.044 55.1196 276.539 55.3299 276.011 55.3333H275.924L250.919 54.8072C250.402 54.7859 249.914 54.567 249.556 54.1964C249.198 53.8258 248.999 53.3322 249 52.8191V38.2374C249.002 37.7133 249.211 37.2109 249.583 36.8387C249.955 36.4664 250.46 36.2542 250.988 36.2478ZM250.852 38.6438L259.984 46.821C260.516 47.302 261.198 47.5875 261.917 47.6299C262.636 47.6723 263.347 47.4691 263.933 47.0541L275.896 38.6762C275.992 38.609 276.057 38.5068 276.077 38.392C276.097 38.2772 276.07 38.1593 276.002 38.0642C275.935 37.9691 275.832 37.9046 275.716 37.8849C275.6 37.8651 275.481 37.8918 275.385 37.959L263.422 46.3369C263.002 46.6358 262.49 46.7827 261.974 46.7532C261.457 46.7238 260.966 46.5197 260.583 46.1751L251.443 37.9978C251.401 37.9535 251.351 37.9182 251.295 37.8943C251.239 37.8703 251.178 37.8582 251.117 37.8586C251.056 37.8591 250.995 37.8721 250.939 37.8968C250.884 37.9216 250.834 37.9576 250.792 38.0025C250.751 38.0474 250.72 38.1003 250.701 38.1578C250.681 38.2153 250.674 38.2762 250.679 38.3366C250.685 38.3971 250.703 38.4557 250.732 38.5088C250.762 38.562 250.802 38.6085 250.851 38.6454L250.852 38.6438Z" fill="url(#paint2_linear)"/>
<path d="M1.43948 56.1794L19.8761 56.0001C20.0232 55.9985 20.1692 56.0259 20.3056 56.0808C20.4419 56.1356 20.566 56.2167 20.6705 56.3194C20.7751 56.4221 20.858 56.5444 20.9146 56.6791C20.9711 56.8139 21.0002 56.9584 21 57.1044V68.5639C20.9994 68.9434 20.8476 69.3072 20.5778 69.5762C20.3079 69.8452 19.9419 69.9975 19.5593 70H19.4967L1.38984 69.619C1.01558 69.6035 0.661871 69.4451 0.402794 69.1767C0.143715 68.9083 -0.00062561 68.5509 3.8147e-06 68.1794V57.6202C0.00121689 57.2407 0.152855 56.8769 0.422178 56.6073C0.691502 56.3377 1.0569 56.184 1.43948 56.1794ZM1.34138 57.9145L7.95374 63.8359C8.33914 64.1842 8.83324 64.3909 9.35369 64.4217C9.87413 64.4524 10.3895 64.3052 10.8138 64.0047L19.4766 57.9379C19.546 57.8893 19.5931 57.8152 19.6075 57.7321C19.622 57.649 19.6025 57.5636 19.5534 57.4948C19.5044 57.4259 19.4298 57.3792 19.346 57.3649C19.2622 57.3506 19.1761 57.3699 19.1067 57.4186L10.4439 63.4854C10.1392 63.7018 9.76894 63.8082 9.39481 63.7868C9.02067 63.7655 8.66518 63.6177 8.38747 63.3681L1.76921 57.4467C1.73898 57.4146 1.70237 57.3891 1.66169 57.3717C1.621 57.3544 1.57714 57.3456 1.53285 57.3459C1.48857 57.3462 1.44483 57.3556 1.40441 57.3736C1.36398 57.3915 1.32775 57.4176 1.29799 57.4501C1.26823 57.4826 1.24559 57.5209 1.23151 57.5626C1.21743 57.6042 1.21221 57.6483 1.21617 57.692C1.22014 57.7358 1.23321 57.7783 1.25456 57.8167C1.27591 57.8552 1.30507 57.8889 1.3402 57.9156L1.34138 57.9145Z" fill="url(#paint3_linear)" fill-opacity="0.2"/>
<path d="M30.9597 24.1153L43.2507 24C43.3488 23.999 43.4461 24.0167 43.537 24.0519C43.628 24.0872 43.7107 24.1393 43.7803 24.2053C43.85 24.2714 43.9053 24.35 43.943 24.4366C43.9808 24.5232 44.0001 24.6161 44 24.71V32.0768C43.9996 32.3207 43.8984 32.5546 43.7185 32.7276C43.5386 32.9005 43.2946 32.9984 43.0396 33H42.9978L30.9266 32.7551C30.6771 32.7451 30.4412 32.6432 30.2685 32.4707C30.0958 32.2982 29.9996 32.0685 30 31.8296V25.0416C30.0008 24.7976 30.1019 24.5637 30.2815 24.3904C30.461 24.2171 30.7046 24.1183 30.9597 24.1153ZM30.8943 25.2307L35.3025 29.0374C35.5594 29.2613 35.8888 29.3942 36.2358 29.4139C36.5828 29.4337 36.9263 29.3391 37.2092 29.1459L42.9844 25.2458C43.0307 25.2145 43.0621 25.1669 43.0717 25.1135C43.0813 25.0601 43.0683 25.0052 43.0356 24.9609C43.0029 24.9167 42.9532 24.8866 42.8973 24.8774C42.8415 24.8682 42.7841 24.8807 42.7378 24.9119L36.9626 28.812C36.7594 28.9511 36.5126 29.0195 36.2632 29.0058C36.0138 28.9921 35.7768 28.8971 35.5917 28.7367L31.1795 24.93C31.1593 24.9094 31.1349 24.893 31.1078 24.8818C31.0807 24.8707 31.0514 24.865 31.0219 24.8652C30.9924 24.8654 30.9632 24.8715 30.9363 24.883C30.9093 24.8945 30.8852 24.9113 30.8653 24.9322C30.8455 24.9531 30.8304 24.9777 30.821 25.0045C30.8116 25.0313 30.8081 25.0596 30.8108 25.0877C30.8134 25.1159 30.8221 25.1432 30.8364 25.1679C30.8506 25.1926 30.87 25.2143 30.8935 25.2315L30.8943 25.2307Z" fill="url(#paint4_linear)" fill-opacity="0.2"/>
<defs>
<linearGradient id="paint0_linear" x1="-23374.8" y1="19866.7" x2="-18738.8" y2="25684.1" gradientUnits="userSpaceOnUse">
<stop stop-color="#FF9085"/>
<stop offset="1" stop-color="#FB6FBB"/>
</linearGradient>
<linearGradient id="paint1_linear" x1="-18784.1" y1="15871" x2="-15083.4" y2="20559.4" gradientUnits="userSpaceOnUse">
<stop stop-color="#FF9085"/>
<stop offset="1" stop-color="#FB6FBB"/>
</linearGradient>
<linearGradient id="paint2_linear" x1="-12849.4" y1="10994.5" x2="-10294.1" y2="14231.8" gradientUnits="userSpaceOnUse">
<stop stop-color="#FF9085"/>
<stop offset="1" stop-color="#FB6FBB"/>
</linearGradient>
<linearGradient id="paint3_linear" x1="-9485.07" y1="7991.48" x2="-7634.69" y2="10335.7" gradientUnits="userSpaceOnUse">
<stop stop-color="#FF9085"/>
<stop offset="1" stop-color="#FB6FBB"/>
</linearGradient>
<linearGradient id="paint4_linear" x1="-6293.38" y1="5125.38" x2="-5114.59" y2="6674.09" gradientUnits="userSpaceOnUse">
<stop stop-color="#FF9085"/>
<stop offset="1" stop-color="#FB6FBB"/>
</linearGradient>
</defs>
</svg>
