<svg width="20" height="24" viewBox="0 0 20 24" fill="none" xmlns="http://www.w3.org/2000/svg">
<path d="M16.2461 6.83452L16.9481 5.87369C17.0855 5.96413 17.2414 6.00841 17.3962 6.00841C17.6487 6.00841 17.8981 5.89217 18.0582 5.67305L18.2879 5.35866C18.6318 4.9078 18.5232 4.20976 18.0585 3.88482L16.6799 2.87751C16.2291 2.53353 15.531 2.64222 15.206 3.1069L14.9763 3.42129C14.8473 3.59784 14.7948 3.81405 14.8284 4.03009C14.86 4.23275 14.9645 4.41184 15.123 4.53978L14.4224 5.49853C13.4383 4.94097 12.3476 4.55088 11.1889 4.36738V2.88115H11.5337C11.9851 2.88115 12.3523 2.51395 12.3523 2.06259V1.27508C12.3523 0.571981 11.7802 0 11.0772 0H8.26385C7.56079 0 6.98876 0.571981 6.98876 1.27508V2.06263C6.98876 2.514 7.35596 2.88119 7.80732 2.88119H8.15222V4.3677C7.00535 4.54968 5.91124 4.93526 4.91705 5.49637L4.21805 4.53982C4.37654 4.41188 4.48103 4.2328 4.51259 4.03013C4.54622 3.8141 4.4937 3.59789 4.36475 3.42134L4.13503 3.10694C3.81004 2.64226 3.11201 2.53353 2.66115 2.87755L1.28259 3.88477C0.817861 4.20976 0.70927 4.90775 1.05315 5.35866L1.28286 5.6731C1.44296 5.89222 1.69226 6.00845 1.94487 6.00845C2.09972 6.00845 2.25553 5.96418 2.39301 5.87374L3.09155 6.82987C2.33427 7.53251 1.68314 8.36213 1.17303 9.29849C1.08153 9.46637 1.1435 9.67665 1.31143 9.76814C1.47936 9.85969 1.68959 9.79768 1.78108 9.62974C3.35683 6.73717 6.37993 4.94028 9.67051 4.94028C14.621 4.94028 18.6485 8.96778 18.6485 13.9183C18.6485 16.0743 17.873 18.1586 16.4648 19.7873C16.3397 19.932 16.3556 20.1506 16.5002 20.2757C16.6442 20.4003 16.8631 20.3853 16.9886 20.2402C18.5055 18.4857 19.341 16.2405 19.341 13.9182C19.341 11.1232 18.1485 8.6017 16.2461 6.83452ZM15.5354 3.82981L15.7651 3.51542C15.8769 3.35592 16.1158 3.31832 16.2714 3.43663L17.65 4.4439C17.8113 4.56175 17.8467 4.78884 17.7288 4.95019L17.4991 5.26458C17.4581 5.32074 17.3791 5.333 17.3229 5.29204L15.5628 4.00608C15.5261 3.97927 15.5156 3.94296 15.5126 3.92366C15.5096 3.90436 15.5085 3.86653 15.5354 3.82981ZM15.6809 4.94986L16.3881 5.46651L15.7206 6.38012C15.4932 6.1973 15.2575 6.02449 15.0141 5.86241L15.6809 4.94986ZM7.68122 2.06259V1.27508C7.68122 0.953825 7.94259 0.692459 8.26385 0.692459H11.0772C11.3984 0.692459 11.6598 0.953825 11.6598 1.27508V2.06263C11.6598 2.1322 11.6032 2.18878 11.5337 2.18878H7.80737C7.7378 2.18873 7.68122 2.13216 7.68122 2.06259ZM1.84195 5.26458L1.61223 4.95019C1.49438 4.78889 1.52972 4.56175 1.69106 4.4439L3.06971 3.43663C3.2253 3.31832 3.46418 3.35596 3.57595 3.51542L3.80566 3.82986C3.84658 3.90776 3.84091 3.94435 3.77821 4.00608L2.01817 5.29199C1.96205 5.333 1.883 5.32069 1.84195 5.26458ZM2.95301 5.46651L3.66017 4.94986L4.32457 5.85909C4.0814 6.02039 3.84556 6.19297 3.61751 6.37597L2.95301 5.46651ZM8.84468 4.28307V2.88115H10.4963V4.28348C10.224 4.26035 9.94874 4.24787 9.67051 4.24787C9.39325 4.24787 9.11779 4.25971 8.84468 4.28307Z" fill="black"/>
<path d="M15.5203 20.7292C13.8947 22.1267 11.8172 22.8963 9.67052 22.8963C4.72001 22.8963 0.692505 18.8688 0.692505 13.9183C0.692505 12.8634 0.873614 11.8305 1.23085 10.8486C1.29623 10.6689 1.20353 10.4703 1.02385 10.4049C0.84422 10.3395 0.645512 10.4322 0.580136 10.6119C0.195206 11.6699 0 12.7824 0 13.9183C9.21436e-05 19.2506 4.33821 23.5888 9.67052 23.5888C11.9828 23.5888 14.2206 22.7597 15.9717 21.2542C16.1167 21.1296 16.1331 20.911 16.0085 20.766C15.8839 20.621 15.6652 20.6046 15.5203 20.7292Z" fill="black"/>
<path d="M14.5796 8.24739C14.698 8.09729 14.6723 7.8796 14.5222 7.76115C13.128 6.66114 11.4503 6.07971 9.67057 6.07971C5.34829 6.07971 1.83191 9.5961 1.83191 13.9183C1.83191 18.2406 5.34829 21.757 9.67057 21.757C13.9928 21.757 17.5092 18.2406 17.5092 13.9183C17.5092 12.0195 16.8215 10.1875 15.5728 8.75994C15.447 8.61596 15.2283 8.60136 15.0843 8.72727C14.9404 8.85314 14.9258 9.07185 15.0517 9.21582C16.1138 10.4302 16.7305 11.9657 16.8082 13.5721H15.7459C15.5547 13.5721 15.3996 13.7272 15.3996 13.9184C15.3996 14.1096 15.5546 14.2646 15.7459 14.2646H16.8082C16.6325 17.9301 13.6823 20.8803 10.0168 21.056V19.9937C10.0168 19.8025 9.86172 19.6474 9.67052 19.6474C9.47932 19.6474 9.32429 19.8024 9.32429 19.9937V21.056C5.65877 20.8803 2.70856 17.9301 2.5328 14.2646H3.59517C3.78637 14.2646 3.9414 14.1096 3.9414 13.9184C3.9414 13.7272 3.78641 13.5721 3.59517 13.5721H2.5328C2.70852 9.90662 5.65877 6.95637 9.32429 6.78065V7.84302C9.32429 8.03422 9.47928 8.18925 9.67052 8.18925C9.86172 8.18925 10.0168 8.03426 10.0168 7.84302V6.78051C11.5103 6.85054 12.9133 7.37373 14.0933 8.30475C14.2434 8.42315 14.4611 8.39749 14.5796 8.24739Z" fill="black"/>
<path d="M9.67054 12.5901C8.93813 12.5901 8.34229 13.1859 8.34229 13.9183C8.34229 14.6507 8.93813 15.2466 9.67054 15.2466C9.91131 15.2466 10.1371 15.1819 10.332 15.0694L12.7075 17.445C12.8428 17.5802 13.062 17.5802 13.1971 17.445C13.3324 17.3098 13.3324 17.0905 13.1971 16.9553L10.8216 14.5798C10.9341 14.3849 10.9988 14.1591 10.9988 13.9184C10.9988 13.1859 10.4029 12.5901 9.67054 12.5901ZM9.0347 13.9183C9.0347 13.5677 9.31993 13.2825 9.67054 13.2825C10.0211 13.2825 10.3064 13.5677 10.3064 13.9183C10.3064 14.2689 10.0211 14.5541 9.67054 14.5541C9.31993 14.5541 9.0347 14.2689 9.0347 13.9183Z" fill="black"/>
</svg>
