<svg width="21" height="28" viewBox="0 0 21 28" fill="none" xmlns="http://www.w3.org/2000/svg">
<path d="M17.452 11.7158V7.61069C17.452 3.83891 14.3824 0.769287 10.6106 0.769287C6.83884 0.769287 3.76922 3.83769 3.76922 7.61069V11.7158C1.88333 11.7158 0.3479 13.25 0.3479 15.1371V24.031C0.3479 25.9169 1.8821 27.4524 3.76922 27.4524H17.4533C19.3391 27.4524 20.8746 25.9182 20.8746 24.031V15.1371C20.8733 13.25 19.3391 11.7158 17.452 11.7158ZM5.13676 7.61069C5.13676 4.59253 7.59246 2.13683 10.6106 2.13683C13.6288 2.13683 16.0845 4.59253 16.0845 7.61069V11.7158H5.13676V7.61069ZM19.5046 24.031C19.5046 25.1633 18.5843 26.0836 17.452 26.0836H3.76922C2.63695 26.0836 1.71667 25.1633 1.71667 24.031V15.1371C1.71667 14.0048 2.63695 13.0846 3.76922 13.0846H17.4533C18.5855 13.0846 19.5058 14.0048 19.5058 15.1371V24.031H19.5046Z" fill="#98989E"/>
</svg>
