<svg width="27" height="19" viewBox="0 0 27 19" fill="none" xmlns="http://www.w3.org/2000/svg">
<path d="M2.61543 0.356934C1.18454 0.356934 0.012207 1.52926 0.012207 2.96016V15.9763C0.012207 17.4072 1.18454 18.5795 2.61543 18.5795H24.0921C25.523 18.5795 26.6953 17.4072 26.6953 15.9763V2.96016C26.6953 1.52926 25.523 0.356934 24.0921 0.356934H2.61543ZM2.61543 1.65855H24.0921C24.2801 1.65855 24.451 1.70222 24.6107 1.77042L14.1673 11.0952C13.6739 11.5358 13.0548 11.5358 12.5606 11.0952L2.09681 1.77042C2.25648 1.70222 2.42738 1.65855 2.61543 1.65855ZM1.32397 2.82799L8.80825 9.49876L1.45618 16.5661C1.37021 16.391 1.31382 16.1888 1.31382 15.9763V2.96016C1.31382 2.9146 1.31968 2.87218 1.32391 2.82799H1.32397ZM25.3835 2.82799C25.3877 2.87218 25.3936 2.9146 25.3936 2.96016V15.9763C25.3936 16.1888 25.3372 16.391 25.2512 16.5661L17.9195 9.48857L25.3835 2.82799H25.3835ZM16.9433 10.3631L24.1226 17.2779C24.1122 17.2781 24.1024 17.2779 24.092 17.2779H2.61537C2.60496 17.2779 2.59519 17.2781 2.58478 17.2779L9.78433 10.3732L11.6961 12.0715C12.6482 12.9203 14.0796 12.9216 15.0315 12.0715L16.9432 10.3631H16.9433Z" fill="#98989E"/>
</svg>
