<svg width="388" height="373" viewBox="0 0 388 373" fill="none" xmlns="http://www.w3.org/2000/svg">
<path d="M321.564 254.449L367.217 254C367.581 253.996 367.943 254.065 368.28 254.202C368.618 254.339 368.925 254.542 369.184 254.799C369.443 255.055 369.648 255.361 369.788 255.698C369.929 256.035 370 256.396 370 256.761V285.41C369.998 286.358 369.623 287.268 368.955 287.941C368.286 288.613 367.38 288.994 366.433 289H366.278L321.442 288.047C320.515 288.009 319.639 287.613 318.997 286.942C318.356 286.271 317.998 285.377 318 284.448V258.051C318.003 257.102 318.378 256.192 319.045 255.518C319.712 254.844 320.617 254.46 321.564 254.449ZM321.322 258.786L337.695 273.59C338.649 274.46 339.873 274.977 341.162 275.054C342.45 275.131 343.726 274.763 344.777 274.012L366.228 258.845C366.4 258.723 366.516 258.538 366.552 258.33C366.588 258.123 366.539 257.909 366.418 257.737C366.297 257.565 366.112 257.448 365.904 257.412C365.697 257.377 365.484 257.425 365.312 257.546L343.861 272.713C343.106 273.254 342.19 273.52 341.263 273.467C340.337 273.414 339.457 273.044 338.769 272.42L322.381 257.617C322.306 257.537 322.215 257.473 322.115 257.429C322.014 257.386 321.905 257.364 321.796 257.365C321.686 257.366 321.578 257.389 321.478 257.434C321.377 257.479 321.288 257.544 321.214 257.625C321.14 257.707 321.084 257.802 321.049 257.906C321.015 258.011 321.002 258.121 321.011 258.23C321.021 258.339 321.054 258.446 321.107 258.542C321.159 258.638 321.232 258.722 321.319 258.789L321.322 258.786Z" fill="url(#paint0_linear)" fill-opacity="0.3"/>
<g filter="url(#filter0_f)">
<path d="M347 281.5C347 290.613 255.142 305.5 166.5 305.5C77.8583 305.5 26 290.613 26 281.5C26 272.387 97.8583 265 186.5 265C275.142 265 347 272.387 347 281.5Z" fill="black" fill-opacity="0.07"/>
</g>
<path d="M176.564 47.4486L222.217 47.0002C222.581 46.9963 222.943 47.0648 223.28 47.2019C223.618 47.3389 223.925 47.5417 224.184 47.7985C224.443 48.0553 224.648 48.361 224.788 48.6979C224.929 49.0347 225 49.3961 225 49.761V78.4097C224.998 79.3584 224.623 80.2681 223.955 80.9405C223.286 81.613 222.38 81.9938 221.433 82H221.278L176.442 81.0475C175.515 81.0089 174.639 80.6126 173.997 79.9417C173.356 79.2708 172.998 78.3773 173 77.4484V51.0506C173.003 50.1017 173.378 49.1922 174.045 48.5182C174.712 47.8443 175.617 47.4601 176.564 47.4486ZM176.322 51.7862L192.695 66.5897C193.649 67.4605 194.873 67.9774 196.162 68.0542C197.45 68.131 198.726 67.7631 199.777 67.0118L221.228 51.8448C221.4 51.7231 221.516 51.5381 221.552 51.3303C221.588 51.1226 221.539 50.9091 221.418 50.737C221.297 50.5648 221.112 50.448 220.904 50.4122C220.697 50.3765 220.484 50.4248 220.312 50.5464L198.861 65.7134C198.106 66.2544 197.19 66.5204 196.263 66.4671C195.337 66.4138 194.457 66.0444 193.769 65.4203L177.381 50.6168C177.306 50.5365 177.215 50.4727 177.115 50.4293C177.014 50.3859 176.905 50.3639 176.796 50.3647C176.686 50.3655 176.578 50.3891 176.478 50.4339C176.377 50.4787 176.288 50.5439 176.214 50.6252C176.14 50.7065 176.084 50.8023 176.049 50.9064C176.015 51.0105 176.002 51.1207 176.011 51.2301C176.021 51.3395 176.054 51.4456 176.107 51.5419C176.159 51.6381 176.232 51.7223 176.319 51.7891L176.322 51.7862Z" fill="url(#paint1_linear)" fill-opacity="0.5"/>
<path d="M249.879 19.3588L286.752 19.0001C287.046 18.997 287.338 19.0519 287.611 19.1615C287.884 19.2711 288.132 19.4334 288.341 19.6388C288.55 19.8442 288.716 20.0888 288.829 20.3583C288.942 20.6278 289 20.9169 289 21.2088V44.1278C288.999 44.8867 288.695 45.6145 288.156 46.1524C287.616 46.6904 286.884 46.9951 286.119 47H285.993L249.78 46.238C249.031 46.2071 248.324 45.8901 247.806 45.3534C247.287 44.8167 246.999 44.1019 247 43.3587V22.2404C247.002 21.4814 247.306 20.7537 247.844 20.2146C248.383 19.6755 249.114 19.3681 249.879 19.3588ZM249.683 22.8289L262.907 34.6718C263.678 35.3684 264.666 35.7819 265.707 35.8433C266.748 35.9048 267.779 35.6104 268.628 35.0094L285.953 22.8758C286.092 22.7785 286.186 22.6305 286.215 22.4643C286.244 22.298 286.205 22.1273 286.107 21.9896C286.009 21.8518 285.86 21.7584 285.692 21.7298C285.524 21.7012 285.352 21.7398 285.213 21.8372L267.888 33.9707C267.278 34.4036 266.538 34.6163 265.79 34.5737C265.041 34.531 264.33 34.2355 263.775 33.7363L250.538 21.8934C250.478 21.8292 250.405 21.7782 250.323 21.7434C250.242 21.7087 250.154 21.6912 250.066 21.6918C249.977 21.6924 249.89 21.7113 249.809 21.7471C249.728 21.783 249.655 21.8351 249.596 21.9002C249.536 21.9652 249.491 22.0418 249.463 22.1251C249.435 22.2084 249.424 22.2966 249.432 22.3841C249.44 22.4716 249.466 22.5565 249.509 22.6335C249.552 22.7105 249.61 22.7778 249.68 22.8313L249.683 22.8289Z" fill="url(#paint2_linear)" fill-opacity="0.3"/>
<path d="M248.879 93.3588L285.752 93.0001C286.046 92.997 286.338 93.0519 286.611 93.1615C286.884 93.2711 287.132 93.4334 287.341 93.6388C287.55 93.8442 287.716 94.0888 287.829 94.3583C287.942 94.6278 288 94.9169 288 95.2088V118.128C287.999 118.887 287.695 119.614 287.156 120.152C286.616 120.69 285.884 120.995 285.119 121H284.993L248.78 120.238C248.031 120.207 247.324 119.89 246.806 119.353C246.287 118.817 245.999 118.102 246 117.359V96.2404C246.002 95.4814 246.306 94.7537 246.844 94.2146C247.383 93.6755 248.114 93.3681 248.879 93.3588ZM248.683 96.8289L261.907 108.672C262.678 109.368 263.666 109.782 264.707 109.843C265.748 109.905 266.779 109.61 267.628 109.009L284.953 96.8758C285.092 96.7785 285.186 96.6305 285.215 96.4643C285.244 96.298 285.205 96.1273 285.107 95.9896C285.009 95.8518 284.86 95.7584 284.692 95.7298C284.524 95.7012 284.352 95.7398 284.213 95.8372L266.888 107.971C266.278 108.404 265.538 108.616 264.79 108.574C264.041 108.531 263.33 108.235 262.775 107.736L249.538 95.8934C249.478 95.8292 249.405 95.7782 249.323 95.7434C249.242 95.7087 249.154 95.6912 249.066 95.6918C248.977 95.6924 248.89 95.7113 248.809 95.7471C248.728 95.783 248.655 95.8351 248.596 95.9002C248.536 95.9652 248.491 96.0418 248.463 96.1251C248.435 96.2084 248.424 96.2966 248.432 96.3841C248.44 96.4716 248.466 96.5565 248.509 96.6335C248.552 96.7105 248.61 96.7778 248.68 96.8313L248.683 96.8289Z" fill="url(#paint3_linear)" fill-opacity="0.1"/>
<path opacity="0.3" d="M311.988 55.2478L337.448 55.0001C337.651 54.9979 337.853 55.0358 338.041 55.1115C338.229 55.1872 338.401 55.2992 338.545 55.4411C338.689 55.5829 338.804 55.7518 338.882 55.9379C338.96 56.1239 339 56.3236 339 56.5251V72.3501C338.999 72.8742 338.79 73.3767 338.417 73.7481C338.044 74.1196 337.539 74.3299 337.011 74.3333H336.924L311.919 73.8072C311.402 73.7859 310.914 73.567 310.556 73.1964C310.198 72.8258 309.999 72.3322 310 71.8191V57.2374C310.002 56.7133 310.211 56.2109 310.583 55.8387C310.955 55.4664 311.46 55.2542 311.988 55.2478ZM311.852 57.6438L320.984 65.821C321.516 66.302 322.198 66.5875 322.917 66.6299C323.636 66.6723 324.347 66.4691 324.933 66.0541L336.896 57.6762C336.992 57.609 337.057 57.5068 337.077 57.392C337.097 57.2772 337.07 57.1593 337.002 57.0642C336.935 56.9691 336.832 56.9046 336.716 56.8849C336.6 56.8651 336.481 56.8918 336.385 56.959L324.422 65.3369C324.002 65.6358 323.49 65.7827 322.974 65.7532C322.457 65.7238 321.966 65.5197 321.583 65.1751L312.443 56.9978C312.401 56.9535 312.351 56.9182 312.295 56.8943C312.239 56.8703 312.178 56.8582 312.117 56.8586C312.056 56.8591 311.995 56.8721 311.939 56.8968C311.884 56.9216 311.834 56.9576 311.792 57.0025C311.751 57.0474 311.72 57.1003 311.701 57.1578C311.681 57.2153 311.674 57.2762 311.679 57.3366C311.685 57.3971 311.703 57.4557 311.732 57.5088C311.762 57.562 311.802 57.6085 311.851 57.6454L311.852 57.6438Z" fill="url(#paint4_linear)"/>
<path d="M320.439 0.179425L338.876 6.23132e-05C339.023 -0.00148889 339.169 0.0259353 339.306 0.0807529C339.442 0.13557 339.566 0.216687 339.671 0.319404C339.775 0.422121 339.858 0.544398 339.915 0.679145C339.971 0.813893 340 0.958434 340 1.10439V12.5639C339.999 12.9434 339.848 13.3072 339.578 13.5762C339.308 13.8452 338.942 13.9975 338.559 14H338.497L320.39 13.619C320.016 13.6035 319.662 13.4451 319.403 13.1767C319.144 12.9083 318.999 12.5509 319 12.1794V1.62022C319.001 1.24069 319.153 0.876869 319.422 0.607299C319.692 0.337729 320.057 0.18404 320.439 0.179425ZM320.341 1.91447L326.954 7.8359C327.339 8.1842 327.833 8.39094 328.354 8.42166C328.874 8.45238 329.389 8.30522 329.814 8.00471L338.477 1.93792C338.546 1.88926 338.593 1.81523 338.608 1.73213C338.622 1.64902 338.602 1.56365 338.553 1.49478C338.504 1.42591 338.43 1.37919 338.346 1.3649C338.262 1.35061 338.176 1.36992 338.107 1.41858L329.444 7.48537C329.139 7.70178 328.769 7.80816 328.395 7.78683C328.021 7.7655 327.665 7.61775 327.387 7.36814L320.769 1.44671C320.739 1.41461 320.702 1.38908 320.662 1.37172C320.621 1.35437 320.577 1.34558 320.533 1.34589C320.489 1.34621 320.445 1.35563 320.404 1.37356C320.364 1.3915 320.328 1.41755 320.298 1.45008C320.268 1.48261 320.246 1.52091 320.232 1.56256C320.217 1.6042 320.212 1.64829 320.216 1.69205C320.22 1.7358 320.233 1.77825 320.255 1.81674C320.276 1.85523 320.305 1.8889 320.34 1.91564L320.341 1.91447Z" fill="url(#paint5_linear)" fill-opacity="0.2"/>
<path d="M342.879 120.359L379.752 120C380.046 119.997 380.338 120.052 380.611 120.162C380.884 120.271 381.132 120.433 381.341 120.639C381.55 120.844 381.716 121.089 381.829 121.358C381.942 121.628 382 121.917 382 122.209V145.128C381.999 145.887 381.695 146.614 381.156 147.152C380.616 147.69 379.884 147.995 379.119 148H378.993L342.78 147.238C342.031 147.207 341.324 146.89 340.806 146.353C340.287 145.817 339.999 145.102 340 144.359V123.24C340.002 122.481 340.306 121.754 340.844 121.215C341.383 120.675 342.114 120.368 342.879 120.359ZM342.683 123.829L355.907 135.672C356.678 136.368 357.666 136.782 358.707 136.843C359.748 136.905 360.779 136.61 361.628 136.009L378.953 123.876C379.092 123.779 379.186 123.63 379.215 123.464C379.244 123.298 379.205 123.127 379.107 122.99C379.009 122.852 378.86 122.758 378.692 122.73C378.524 122.701 378.352 122.74 378.213 122.837L360.888 134.971C360.278 135.404 359.538 135.616 358.79 135.574C358.041 135.531 357.33 135.235 356.775 134.736L343.538 122.893C343.478 122.829 343.405 122.778 343.323 122.743C343.242 122.709 343.154 122.691 343.066 122.692C342.977 122.692 342.89 122.711 342.809 122.747C342.728 122.783 342.655 122.835 342.596 122.9C342.536 122.965 342.491 123.042 342.463 123.125C342.435 123.208 342.424 123.297 342.432 123.384C342.44 123.472 342.466 123.557 342.509 123.633C342.552 123.71 342.61 123.778 342.68 123.831L342.683 123.829Z" fill="url(#paint6_linear)" fill-opacity="0.4"/>
<path d="M21.879 96.3588L58.7521 96.0001C59.0464 95.997 59.3384 96.0519 59.6111 96.1615C59.8839 96.2711 60.132 96.4334 60.341 96.6388C60.5501 96.8442 60.716 97.0888 60.8291 97.3583C60.9423 97.6278 61.0003 97.9169 61 98.2088V121.128C60.9988 121.887 60.6953 122.614 60.1556 123.152C59.6159 123.69 58.8838 123.995 58.1187 124H57.9934L21.7797 123.238C21.0312 123.207 20.3237 122.89 19.8056 122.353C19.2874 121.817 18.9987 121.102 19 120.359V99.2404C19.0024 98.4814 19.3057 97.7537 19.8444 97.2146C20.383 96.6755 21.1138 96.3681 21.879 96.3588ZM21.6828 99.8289L34.9075 111.672C35.6783 112.368 36.6665 112.782 37.7074 112.843C38.7483 112.905 39.7789 112.61 40.6276 112.009L57.9532 99.8758C58.0921 99.7785 58.1863 99.6305 58.2151 99.4643C58.2439 99.298 58.205 99.1273 58.1069 98.9896C58.0088 98.8518 57.8595 98.7584 57.692 98.7298C57.5244 98.7012 57.3523 98.7398 57.2134 98.8372L39.8877 110.971C39.2783 111.404 38.5379 111.616 37.7896 111.574C37.0413 111.531 36.3304 111.235 35.7749 110.736L22.5384 98.8934C22.478 98.8292 22.4047 98.7782 22.3234 98.7434C22.242 98.7087 22.1543 98.6912 22.0657 98.6918C21.9771 98.6924 21.8897 98.7113 21.8088 98.7471C21.728 98.783 21.6555 98.8351 21.596 98.9002C21.5365 98.9652 21.4912 99.0418 21.463 99.1251C21.4349 99.2084 21.4244 99.2966 21.4323 99.3841C21.4403 99.4716 21.4664 99.5565 21.5091 99.6335C21.5518 99.7105 21.6101 99.7778 21.6804 99.8313L21.6828 99.8289Z" fill="url(#paint7_linear)" fill-opacity="0.8"/>
<path d="M105.105 254.068C101.008 243.14 96.6814 226.54 100.246 207.846C104.917 183.328 119.055 176.754 136.096 139.754C146.87 116.359 154.153 99.9239 146.772 85.5614C140.985 74.308 126.882 65.6757 114.831 67.508C104.808 69.0332 95.0364 77.9662 89.8204 85.2172C85.5696 91.126 84.1229 96.2244 78.7392 97.7844C73.2355 99.3771 70.109 95.3877 65.2961 96.2091C55.5351 97.865 51.1863 117.162 50.4803 120.282C42.6607 154.977 60.9015 189.988 69.0414 205.164C75.7695 217.711 86.9684 235.531 105.105 254.068Z" fill="url(#paint8_linear)"/>
<g style="mix-blend-mode:soft-light" opacity="0.5">
<g style="mix-blend-mode:soft-light" opacity="0.5">
<path d="M110.918 264.176L111.595 263.58C100.836 252.635 92.4045 241.641 86.5392 230.9C77.8895 215.071 75.1006 200.247 78.2468 186.841C80.7131 176.331 86.646 167.025 94.8578 154.134C101.414 143.84 107.042 137.103 112.009 131.16C118.506 123.385 123.64 117.241 127.764 106.77C131.947 96.1467 133.671 84.4474 132.884 72L131.96 72.0515C132.738 84.3773 131.034 95.9571 126.895 106.467C122.822 116.811 117.728 122.904 111.281 130.622C106.299 136.586 100.651 143.346 94.0691 153.685C86.1231 166.161 79.846 176.014 77.3469 186.658C74.1528 200.259 76.97 215.291 85.7222 231.308C91.6223 242.113 100.102 253.173 110.918 264.176Z" fill="white"/>
</g>
<g style="mix-blend-mode:soft-light" opacity="0.5">
<path d="M82.4469 175.099L82.7358 174.972C82.863 174.917 95.5662 169.351 109.694 165.722C123.723 162.119 147.474 168.152 147.713 168.213L148 167.538C143.463 166.431 138.84 165.55 134.161 164.899C127.006 163.903 116.916 163.121 109.408 165.046C96.3874 168.39 84.5767 173.367 82.5806 174.225C62.9147 159.63 64.9625 107.548 64.9863 107.02L64.0723 106.997C63.808 116.472 64.268 125.95 65.4497 135.382C68.058 155.493 73.695 168.796 82.2012 174.923L82.4469 175.099Z" fill="white"/>
</g>
</g>
<path d="M103.37 251.005C84.9422 250.946 61.4767 248.242 39.081 237.845C33.3661 235.191 -1.94329 218.796 2.40556 202.684C3.93071 197.019 9.0966 196.161 11.2776 188.609C13.8616 179.659 8.27303 175.12 4.47758 163.897C2.21383 157.202 -4.41187 137.604 7.39713 126.906C14.452 120.513 27.771 117.589 37.8631 120.051C52.6657 123.662 57.6225 138.153 65.5881 162.819C72.6473 184.685 70.7256 190.017 76.0833 205.673C80.0595 217.293 87.6069 233.311 103.37 251.005Z" fill="url(#paint9_linear)"/>
<g style="mix-blend-mode:soft-light" opacity="0.5">
<g style="mix-blend-mode:soft-light" opacity="0.5">
<path d="M141.725 262C151.283 262 161.066 260.797 171 258.391L170.798 257.605C152.056 262.14 133.864 262.369 116.729 258.284C93.9 252.843 74.1846 239.681 58.1419 219.159C41.4205 197.782 32.8608 173.778 28.6244 157.406C25.693 146.079 26.4143 133.576 30.7638 120.241L29.9436 120C25.5476 133.478 24.8223 146.129 27.79 157.599C32.0446 174.046 40.6448 198.157 57.451 219.643C73.625 240.319 93.5 253.584 116.527 259.072C124.766 261.028 133.23 262.011 141.725 262Z" fill="white"/>
</g>
<g style="mix-blend-mode:soft-light" opacity="0.5">
<path d="M38.763 187L39.0245 186.767C39.076 186.72 44.235 182.071 48.4462 174.947C52.3401 168.365 56.2039 158.256 52.5073 147.479L51.6239 147.645C58.1466 166.665 40.9029 183.89 38.5764 186.106C0.476013 167.39 1.13857 146.331 2.25355 140.309C2.28572 140.142 2.30072 140.038 2.30072 140H1.84615H1.38943C1.38943 140.035 1.37229 140.111 1.35085 140.225C0.21442 146.363 -0.476013 167.868 38.422 186.845L38.763 187Z" fill="white"/>
</g>
<g style="mix-blend-mode:soft-light" opacity="0.5">
<path d="M47.4869 223C51.3906 222.992 55.2891 222.755 59.1553 222.292L59.3575 222.267L59.4478 222.112C59.5381 221.957 68.4563 205.94 66.7933 184.054L65.1194 162L64.352 162.043L66.0277 184.095C67.5896 204.641 59.7602 219.956 58.8447 221.666C47.895 222.932 32.1531 223.015 18.9192 216.363C10.9742 212.372 7.68791 207.797 7.65541 207.751L6.99994 208.093C7.13536 208.285 10.4307 212.857 18.531 216.924C24.4302 219.894 33.8649 223 47.4869 223Z" fill="white"/>
</g>
</g>
<path d="M92.5309 259.295C92.5788 257.422 92.6877 246.386 84.5608 239.623C77.7587 233.958 68.8736 234.372 66.8256 234.468C58.5462 234.852 56.4916 238.688 51.3976 236.941C45.3493 234.867 44.9266 228.322 40.0963 228.165C36.7627 228.058 33.4357 231.06 32.416 234.161C30.6273 239.608 35.5208 246.656 41.2205 249.441C49.0641 253.275 54.2191 246.948 63.5007 250.831C68.8954 253.086 68.7886 255.905 74.4361 258.422C80.992 261.341 87.7702 260.498 92.5309 259.295Z" fill="url(#paint10_linear)"/>
<g style="mix-blend-mode:soft-light" opacity="0.5">
<g style="mix-blend-mode:soft-light" opacity="0.5">
<path d="M91.6695 255L91.9999 254.829C89.4849 252.61 86.7742 250.496 83.8826 248.498C78.0996 244.5 75.1964 242.494 71.6539 241.653C67.042 240.558 63.4427 241.44 59.9784 242.294C56.9129 243.048 54.0175 243.757 50.5591 243.124C45.0595 242.116 40.6353 238.036 37.4095 231L37.0185 231.083C40.2892 238.221 44.8093 242.359 50.4554 243.395C54.0429 244.056 56.997 243.326 60.127 242.558C63.5307 241.722 67.0517 240.856 71.5209 241.917C74.9735 242.737 77.8533 244.728 83.5933 248.695C86.4705 250.685 89.1675 252.79 91.6695 255Z" fill="white"/>
</g>
<g style="mix-blend-mode:soft-light" opacity="0.5">
<path d="M43.6969 243.919C47.2727 243.919 49.2414 243.153 49.3665 243.099L49.4271 243.075L49.4526 243.03C50.6608 241.001 50.1935 238.521 49.5914 236.799C49.4999 236.5 49.1785 236.058 48.4999 235L47.9999 235.5C48.0371 235.554 51.2747 239.122 49.0948 242.88C48.8054 242.984 47.4741 243.423 45.2453 243.575C42.9169 243.734 39.1046 243.6 34.172 242.065L34 242.321C37.9511 243.55 41.216 243.919 43.6969 243.919Z" fill="white"/>
</g>
<g style="mix-blend-mode:soft-light" opacity="0.5">
<path d="M53.7712 249.837C56.1563 245.251 71.4916 241.952 71.6461 241.919L71.824 241.882L71.7888 241.757C71.2961 240.065 68.5278 238.894 63.562 238.277C61.1694 237.995 58.7453 237.853 56.3166 237.853V238.134C56.4515 238.134 69.9804 238.042 71.3352 241.69C68.6197 242.305 65.9686 243.042 63.3997 243.898C57.781 245.789 54.4066 247.756 53.3723 249.743L53.7712 249.837Z" fill="white"/>
</g>
<g style="mix-blend-mode:soft-light" opacity="0.5">
<path d="M63.7908 251.6C67.9355 245.053 82.9051 248.27 83.0537 248.303L83.2883 248.355L83.3255 248.19C84.6803 241.939 76.3714 236.274 76.2874 236.219L75.9941 236.417C76.0762 236.473 84.0958 241.941 82.9462 247.987C80.9794 247.599 67.4076 245.174 63.4076 251.489L63.7908 251.6Z" fill="white"/>
</g>
</g>
<path d="M97.7229 113.275L342.544 104.831C343.77 104.79 344.992 104.996 346.137 105.436C347.281 105.877 348.326 106.543 349.208 107.396C350.09 108.248 350.792 109.27 351.272 110.399C351.751 111.528 351.999 112.742 352 113.968V271.754C351.999 273.011 351.738 274.255 351.234 275.408C350.731 276.56 349.995 277.597 349.073 278.452C348.151 279.308 347.062 279.964 345.875 280.38C344.688 280.796 343.428 280.962 342.174 280.87L97.3547 262.502C95.0558 262.328 92.9074 261.292 91.3393 259.602C89.7712 257.912 88.8988 255.692 88.8966 253.386V122.413C88.8985 120.044 89.8195 117.767 91.4656 116.063C93.1118 114.359 95.3549 113.36 97.7229 113.275Z" fill="url(#paint11_linear)"/>
<path d="M93.5156 113.276L338.335 104.831C339.561 104.789 340.783 104.995 341.928 105.436C343.073 105.876 344.118 106.543 345 107.395C345.882 108.248 346.584 109.269 347.064 110.398C347.544 111.527 347.792 112.742 347.793 113.968V271.754C347.791 273.011 347.531 274.255 347.027 275.408C346.523 276.561 345.788 277.597 344.865 278.452C343.943 279.308 342.855 279.964 341.668 280.38C340.481 280.796 339.221 280.963 337.966 280.87L93.1474 262.503C90.8485 262.328 88.7002 261.292 87.132 259.602C85.5639 257.912 84.6915 255.692 84.6894 253.387V122.413C84.6913 120.044 85.6122 117.768 87.2584 116.063C88.9045 114.359 91.1476 113.36 93.5156 113.276Z" fill="url(#paint12_linear)"/>
<path d="M189.633 201.019L87.049 116.295C87.8683 115.383 88.8634 114.645 89.9745 114.126C91.0856 113.607 92.29 113.318 93.5156 113.276L338.335 104.831C340.567 104.749 342.752 105.491 344.472 106.916L207.34 201.773C204.709 203.594 201.556 204.506 198.36 204.37C195.163 204.234 192.099 203.057 189.633 201.019Z" fill="url(#paint13_linear)"/>
<path d="M189.633 201.019C192.099 203.057 195.163 204.234 198.36 204.37C201.556 204.506 204.709 203.594 207.34 201.773L344.472 106.916C345.512 107.772 346.349 108.848 346.923 110.066C347.497 111.285 347.794 112.615 347.793 113.962V271.754C347.791 273.011 347.531 274.255 347.027 275.408C346.523 276.561 345.788 277.597 344.865 278.452C343.943 279.308 342.855 279.964 341.668 280.38C340.481 280.796 339.221 280.962 337.966 280.87L93.1474 262.503C90.8485 262.328 88.7002 261.292 87.132 259.602C85.5639 257.912 84.6915 255.692 84.6894 253.386V122.413C84.689 120.152 85.5301 117.971 87.049 116.295L189.633 201.019Z" fill="url(#paint14_linear)"/>
<path d="M189.633 201.019L87.049 116.295C87.8683 115.383 88.8634 114.645 89.9745 114.126C91.0856 113.607 92.29 113.318 93.5156 113.276L338.335 104.831C340.567 104.749 342.752 105.491 344.472 106.916L207.34 201.773C204.709 203.594 201.556 204.506 198.36 204.37C195.163 204.234 192.099 203.057 189.633 201.019Z" fill="url(#paint15_linear)"/>
<path style="mix-blend-mode:multiply" opacity="0.37" d="M87.049 116.295L189.633 201.019C192.099 203.057 195.163 204.234 198.36 204.37C201.556 204.506 204.709 203.594 207.34 201.773L344.472 106.916C345.512 107.772 346.349 108.848 346.923 110.066C347.497 111.285 347.794 112.615 347.793 113.962V137.231C342.838 135.148 338.642 134.75 335.236 135.035C325.815 135.822 323.565 141.702 305.524 150.193C288.656 158.139 286.887 154.755 279.457 160.514C265.132 171.597 271.396 184.391 258.842 196.289C245.769 208.682 234.485 199.063 215.789 210.844C196.032 223.291 202.357 237.983 186.077 246.619C163.269 258.718 139.978 235.649 120.589 247.831C114.726 251.515 110.979 257.321 108.562 263.666L93.154 262.509C90.855 262.335 88.7067 261.299 87.1386 259.608C85.5705 257.918 84.6981 255.699 84.6959 253.393V122.413C84.6938 120.153 85.5325 117.972 87.049 116.295Z" fill="url(#paint16_linear)"/>
<path d="M209.044 121.032L208.192 122.435C208.105 122.578 207.974 122.689 207.819 122.751C207.664 122.814 207.493 122.824 207.331 122.782C207.255 122.762 207.184 122.724 207.125 122.672C207.066 122.62 207.02 122.554 206.991 122.481C206.962 122.408 206.951 122.329 206.958 122.251C206.964 122.172 206.989 122.097 207.03 122.03L208.287 120.008L209.044 121.032Z" fill="url(#paint17_linear)"/>
<path d="M73.5363 131.937C71.826 132.808 69.6777 132.006 68.743 130.155C67.8083 128.303 68.4271 126.098 70.1374 125.228C70.2267 125.183 70.3161 125.146 70.4076 125.108C70.0929 124.098 69.8525 123.065 69.6886 122.019C69.5905 122.019 69.4925 122.019 69.3922 122.019C67.4422 121.845 65.8931 120.058 65.9345 118.012C65.9759 115.966 67.5904 114.463 69.5404 114.637C69.6428 114.637 69.743 114.661 69.8433 114.679C70.0456 113.675 70.3246 112.688 70.6777 111.726C70.5884 111.674 70.4991 111.62 70.4119 111.559C68.743 110.391 68.2092 108.073 69.2201 106.401C70.2311 104.73 72.4055 104.312 74.0744 105.482C74.1594 105.541 74.24 105.606 74.3207 105.672C74.9839 104.939 75.7077 104.263 76.4842 103.652C76.4297 103.56 76.3752 103.469 76.3273 103.373C75.3882 101.521 74.1485 99.4969 75.8915 98.6559C79.8787 96.7102 81.5913 98.377 82.5303 100.229C82.5788 100.323 82.6224 100.42 82.661 100.519C83.605 100.247 84.5699 100.055 85.5457 99.9435C85.5457 99.8411 85.5457 99.7387 85.5457 99.6341C85.5871 97.5948 84.9814 96.4923 86.9402 96.4531C91.2128 96.3703 92.6551 98.2245 92.605 100.264C92.605 100.371 92.605 100.482 92.5832 100.578C93.5679 100.859 94.5293 101.216 95.4592 101.645C95.5028 101.554 95.5507 101.464 95.603 101.375C96.614 99.6973 98.7862 99.2855 100.457 100.456C102.128 101.626 102.66 103.942 101.649 105.613C101.597 105.698 101.54 105.778 101.484 105.859C102.231 106.607 102.924 107.408 103.556 108.256C103.638 108.203 103.721 108.153 103.81 108.107C105.521 107.236 107.669 108.038 108.604 109.89C109.538 111.742 108.92 113.947 107.209 114.816C107.12 114.859 107.031 114.899 106.939 114.934C107.254 115.945 107.494 116.979 107.658 118.025C107.756 118.025 107.854 118.025 107.955 118.036C109.915 118.21 111.454 119.997 111.414 122.043C111.375 124.089 109.759 125.592 107.806 125.418C107.705 125.409 107.604 125.394 107.504 125.374C107.303 126.379 107.024 127.366 106.669 128.327C106.758 128.379 106.848 128.433 106.935 128.494C108.604 129.664 109.138 131.98 108.127 133.651C107.116 135.323 103.769 136.109 102.098 134.939C102.013 134.88 103.107 134.449 103.028 134.381C102.364 135.115 101.64 135.791 100.863 136.403C100.917 136.495 100.972 136.584 101.019 136.682C101.961 138.534 101.335 140.739 99.625 141.608C97.9147 142.478 95.7642 141.678 94.8317 139.826C94.7832 139.731 94.7396 139.634 94.701 139.534C93.7482 139.802 92.7744 139.987 91.7901 140.09C91.7901 140.194 91.7901 140.297 91.7901 140.401C91.7509 142.441 90.1343 143.951 88.1821 143.776C86.2299 143.602 84.6829 141.815 84.7222 139.772C84.7222 139.665 84.7352 139.554 84.7439 139.458C83.7593 139.176 82.7978 138.819 81.868 138.39C81.8252 138.482 81.7772 138.572 81.7242 138.658C80.7132 140.336 78.541 140.75 76.8698 139.58C75.1987 138.41 74.6671 136.094 75.678 134.423C75.7303 134.336 75.787 134.257 75.8436 134.177C75.0958 133.429 74.4033 132.628 73.7716 131.78C73.6958 131.836 73.6172 131.888 73.5363 131.937ZM94.8622 132.207C101.072 129.052 103.34 121.045 99.9257 114.319C96.5116 107.593 88.7072 104.7 82.4954 107.853C76.2837 111.005 74.0156 119.014 77.432 125.738C80.8483 132.462 88.6505 135.36 94.8622 132.207Z" fill="#D8DEE8"/>
<path d="M69.3857 122.008C67.4357 121.834 65.8866 120.047 65.9258 118.001C65.965 115.955 67.5838 114.452 69.5339 114.626C69.6363 114.626 69.7365 114.65 69.8367 114.668C70.039 113.664 70.318 112.677 70.6712 111.716C70.5818 111.663 70.4925 111.609 70.4054 111.548C68.7364 110.378 66.6709 107.552 67.8475 105.988C70.0851 103.016 72.3989 104.301 74.0679 105.471C74.1529 105.53 74.2335 105.595 74.3141 105.661C74.9774 104.928 75.7011 104.252 76.4776 103.641C76.4232 103.549 76.3687 103.458 76.3208 103.362C76.0782 102.893 75.9337 102.38 75.8963 101.853C75.8588 101.326 75.9291 100.797 76.1029 100.299C77.7152 103.138 79.3035 105.99 80.8679 108.853C75.9133 112.485 74.3315 119.64 77.4341 125.738C80.0487 130.908 85.2777 133.811 90.3696 133.447C90.5874 134.037 90.8184 134.63 91.0624 135.214C91.716 136.795 92.4721 138.347 93.2238 139.896C92.751 139.985 92.2782 140.057 91.801 140.114C91.801 140.218 91.801 140.321 91.801 140.425C91.7618 142.465 90.5221 144.195 86.9859 144.007C85.025 143.905 84.6938 141.828 84.733 139.796C84.733 139.689 84.7461 139.578 84.7548 139.482C83.7702 139.2 82.8087 138.843 81.8788 138.414C81.8361 138.506 81.7881 138.596 81.735 138.682C80.7241 140.362 77.2162 141.079 75.5473 139.905C73.8783 138.73 74.6758 136.124 75.6889 134.447C75.7412 134.36 75.7979 134.279 75.8545 134.201C75.1067 133.453 74.4142 132.652 73.7825 131.804C73.7001 131.858 73.615 131.907 73.5276 131.952C71.8172 132.824 69.6689 132.022 68.7342 130.17C67.7995 128.318 68.4183 126.113 70.1287 125.244C70.218 125.198 70.3073 125.161 70.3988 125.124C70.0841 124.113 69.8438 123.08 69.6798 122.034C69.584 122.017 69.4859 122.017 69.3857 122.008Z" fill="#D8DEE8"/>
<path d="M71.6974 132.146C69.987 133.017 67.8366 132.216 66.904 130.364C65.9715 128.512 66.5903 126.307 68.292 125.435C68.3791 125.39 68.4706 125.352 68.5621 125.315C68.2474 124.305 68.0071 123.272 67.8431 122.226C67.7451 122.226 67.647 122.226 67.5468 122.215C65.5859 122.041 64.0455 120.254 64.0869 118.208C64.1283 116.162 65.7428 114.659 67.6949 114.833C67.7973 114.833 67.8976 114.857 67.9956 114.875C68.1984 113.871 68.4781 112.885 68.8323 111.925C68.743 111.87 68.6536 111.816 68.5665 111.755C66.8953 110.587 66.3615 108.269 67.3725 106.6C68.3834 104.931 70.5579 104.508 72.2268 105.678C72.314 105.739 72.3946 105.802 72.473 105.868C73.1376 105.135 73.862 104.46 74.6387 103.848C74.5843 103.756 74.5298 103.665 74.4819 103.569C73.5406 101.717 74.1659 99.5121 75.8763 98.6428C77.5866 97.7735 79.7349 98.5731 80.6696 100.425C80.7175 100.521 80.7611 100.617 80.8003 100.715C81.7533 100.448 82.7271 100.263 83.7112 100.159C83.7112 100.057 83.7112 99.9544 83.7112 99.8498C83.7526 97.8105 85.3692 96.3006 87.3193 96.4727C89.2693 96.6448 90.8206 98.4336 90.7792 100.48C90.7792 100.586 90.7792 100.697 90.7574 100.793C91.7428 101.074 92.7051 101.431 93.6355 101.861C93.6791 101.769 93.7249 101.68 93.7772 101.591C94.7881 99.913 96.9626 99.5012 98.6315 100.671C100.3 101.841 100.836 104.157 99.8255 105.828C99.7732 105.913 99.7165 105.994 99.6577 106.075C100.407 106.821 101.099 107.622 101.73 108.471C101.813 108.419 101.897 108.369 101.985 108.323C103.697 107.452 105.845 108.253 106.778 110.105C107.71 111.957 107.094 114.162 105.384 115.032C105.294 115.075 105.203 115.114 105.113 115.149C105.428 116.161 105.668 117.194 105.83 118.241C105.928 118.241 106.026 118.241 106.126 118.241C108.087 118.415 109.628 120.202 109.586 122.248C109.545 124.294 107.931 125.797 105.978 125.623C105.877 125.613 105.777 125.599 105.678 125.579C105.475 126.583 105.196 127.57 104.841 128.531C104.933 128.584 105.022 128.638 105.109 128.699C106.778 129.869 107.312 132.185 106.301 133.856C105.29 135.527 103.115 135.948 101.446 134.778C101.362 134.717 101.281 134.654 101.2 134.586C100.536 135.32 99.8119 135.996 99.0346 136.608C99.0912 136.7 99.1435 136.791 99.1936 136.887C100.133 138.739 99.5095 140.944 97.7992 141.813C96.0889 142.683 93.9384 141.883 93.0059 140.031C92.9579 139.935 92.9165 139.837 92.8752 139.741C91.9231 140.008 90.95 140.193 89.9665 140.295C89.9665 140.399 89.9665 140.502 89.9665 140.606C89.9251 142.645 88.3106 144.155 86.3584 143.981C84.4062 143.807 82.8571 142.02 82.8985 139.976C82.8985 139.87 82.9094 139.759 82.9203 139.663C81.9355 139.382 80.974 139.025 80.0443 138.595C79.9985 138.687 79.9528 138.776 79.9005 138.863C78.8895 140.543 76.7151 140.955 75.0462 139.785C73.3772 138.615 72.8434 136.299 73.8544 134.628C73.905 134.543 73.9603 134.46 74.02 134.381C73.2721 133.634 72.5797 132.833 71.9479 131.985C71.8695 132.05 71.7867 132.1 71.6974 132.146ZM93.0211 132.407C99.2328 129.253 101.499 121.245 98.0846 114.52C94.6705 107.794 86.8683 104.9 80.6544 108.053C74.4405 111.206 72.1767 119.215 75.5909 125.941C79.005 132.667 86.8116 135.569 93.0211 132.407Z" fill="white"/>
<path d="M43.846 142.236C42.9375 142.698 41.798 142.273 41.299 141.29C40.8001 140.308 41.1313 139.138 42.0376 138.676C42.0856 138.652 42.1335 138.632 42.1814 138.613C42.0147 138.076 41.8873 137.527 41.8001 136.972C41.7478 136.972 41.6956 136.972 41.6433 136.972C41.1279 136.909 40.6546 136.656 40.3154 136.263C39.9763 135.87 39.7957 135.364 39.8087 134.845C39.8049 134.599 39.8527 134.354 39.9491 134.127C40.0455 133.899 40.1884 133.695 40.3686 133.526C40.5487 133.358 40.7622 133.228 40.9952 133.147C41.2283 133.066 41.4757 133.034 41.7217 133.054C41.7759 133.059 41.8297 133.067 41.8829 133.078C41.9867 132.546 42.1324 132.022 42.3187 131.512C42.2708 131.484 42.2228 131.455 42.1771 131.423C41.7506 131.126 41.4496 130.682 41.3328 130.176C41.216 129.67 41.2917 129.139 41.5452 128.686C41.6741 128.475 41.8456 128.294 42.0488 128.154C42.2519 128.014 42.4822 127.917 42.7248 127.871C42.9673 127.825 43.2168 127.831 43.4572 127.887C43.6976 127.943 43.9235 128.049 44.1205 128.198C44.1663 128.231 44.2077 128.263 44.2513 128.298C44.6029 127.909 44.987 127.55 45.3995 127.226C45.3712 127.178 45.3407 127.13 45.3167 127.08C44.8178 126.098 44.1641 125.023 45.0792 124.577C47.1948 123.544 48.1033 124.429 48.6023 125.411C48.6284 125.461 48.6502 125.514 48.672 125.566C49.1768 125.423 49.6929 125.324 50.2146 125.27C50.2146 125.215 50.2146 125.161 50.2146 125.106C50.2364 124.017 49.9161 123.439 50.9554 123.42C53.2213 123.374 53.9861 124.359 53.9643 125.44C53.9643 125.496 53.9643 125.551 53.9643 125.607C54.4867 125.756 54.9967 125.945 55.4894 126.174C55.5122 126.125 55.5377 126.077 55.5657 126.03C55.6943 125.819 55.8658 125.638 56.0689 125.497C56.272 125.357 56.5023 125.26 56.745 125.214C56.9877 125.168 57.2373 125.174 57.4777 125.23C57.7182 125.287 57.9441 125.393 58.141 125.542C58.5679 125.838 58.8693 126.282 58.9865 126.788C59.1037 127.294 59.0283 127.825 58.775 128.279C58.7467 128.324 58.7162 128.366 58.6857 128.407C59.0794 128.806 59.4435 129.232 59.7751 129.684C59.8186 129.655 59.8637 129.629 59.9102 129.605C60.8165 129.144 61.9582 129.568 62.4572 130.551C62.9561 131.534 62.6249 132.704 61.7164 133.166C61.6685 133.19 61.6205 133.209 61.5726 133.229C61.7403 133.765 61.8677 134.314 61.9539 134.869C62.0062 134.869 62.0584 134.869 62.1107 134.869C62.6265 134.932 63.1004 135.185 63.44 135.578C63.7795 135.971 63.9605 136.477 63.9475 136.996C63.9514 137.243 63.9035 137.488 63.8069 137.715C63.7104 137.943 63.5673 138.147 63.3869 138.316C63.2065 138.485 62.9928 138.614 62.7595 138.695C62.5262 138.776 62.2785 138.807 62.0323 138.787C61.9788 138.782 61.9257 138.774 61.8733 138.763C61.7685 139.295 61.6228 139.819 61.4375 140.329C61.4854 140.358 61.5334 140.386 61.5791 140.419C62.006 140.715 62.3074 141.159 62.4246 141.665C62.5418 142.17 62.4665 142.702 62.2132 143.155C61.675 144.044 59.8993 144.463 59.0147 143.837C58.9689 143.807 59.5485 143.578 59.5071 143.543C59.1542 143.932 58.7694 144.29 58.3567 144.615C58.3872 144.663 58.4155 144.711 58.4417 144.761C58.9406 145.744 58.6094 146.914 57.7009 147.376C56.7923 147.837 55.6528 147.413 55.1539 146.43C55.1299 146.38 55.106 146.328 55.0863 146.275C54.5808 146.418 54.064 146.517 53.5416 146.572C53.5449 146.626 53.5449 146.681 53.5416 146.735C53.5455 146.982 53.4976 147.227 53.4012 147.454C53.3048 147.681 53.1619 147.886 52.9818 148.054C52.8016 148.223 52.5881 148.352 52.3551 148.433C52.1221 148.514 51.8746 148.546 51.6286 148.526C51.1131 148.464 50.6392 148.212 50.2996 147.819C49.96 147.426 49.779 146.921 49.7919 146.402C49.7919 146.345 49.7919 146.288 49.805 146.234C49.2828 146.085 48.7729 145.895 48.2798 145.667C48.2559 145.715 48.2319 145.763 48.2036 145.811C48.0747 146.022 47.9032 146.203 47.7 146.343C47.4969 146.484 47.2666 146.58 47.0241 146.626C46.7815 146.672 46.532 146.667 46.2916 146.61C46.0512 146.554 45.8253 146.448 45.6283 146.299C45.2018 146.003 44.9008 145.559 44.784 145.053C44.6672 144.547 44.7429 144.016 44.9964 143.563C45.0226 143.517 45.0531 143.476 45.0836 143.432C44.6899 143.034 44.3258 142.608 43.9942 142.157C43.931 142.186 43.8918 142.212 43.846 142.236ZM55.1583 142.38C58.4526 140.706 59.6553 136.458 57.8447 132.891C56.0341 129.324 51.8945 127.786 48.598 129.459C45.3015 131.133 44.1009 135.381 45.9115 138.948C47.7221 142.515 51.8639 144.053 55.1583 142.38Z" fill="#D8DEE8"/>
<path d="M41.6432 136.97C41.1279 136.907 40.6545 136.654 40.3154 136.261C39.9763 135.868 39.7956 135.362 39.8087 134.843C39.8048 134.597 39.8526 134.352 39.9491 134.124C40.0455 133.897 40.1883 133.693 40.3685 133.524C40.5487 133.355 40.7621 133.226 40.9952 133.145C41.2282 133.064 41.4757 133.032 41.7217 133.052C41.7758 133.057 41.8297 133.065 41.8829 133.076C41.9866 132.543 42.1323 132.02 42.3186 131.51C42.2707 131.481 42.2228 131.453 42.177 131.42C41.2924 130.799 40.1965 129.3 40.8218 128.47C42.0071 126.893 43.2337 127.575 44.1205 128.196C44.1663 128.229 44.2076 128.261 44.2512 128.296C44.6029 127.907 44.987 127.548 45.3994 127.224C45.3711 127.176 45.3406 127.128 45.3167 127.078C45.1875 126.829 45.1105 126.556 45.0903 126.276C45.0701 125.997 45.107 125.716 45.199 125.451C46.0545 126.958 46.8977 128.472 47.7286 129.991C45.0988 131.917 44.2621 135.713 45.9049 138.948C47.2972 141.691 50.0664 143.232 52.7681 143.038C52.8901 143.351 53.0078 143.665 53.1363 143.975C53.4871 144.816 53.8858 145.637 54.2823 146.461C54.0318 146.506 53.7812 146.543 53.5285 146.57C53.5317 146.625 53.5317 146.68 53.5285 146.735C53.5067 147.824 52.8509 148.735 50.9749 148.635C49.9357 148.581 49.757 147.482 49.7788 146.402C49.7788 146.345 49.7788 146.288 49.7919 146.234C49.2697 146.085 48.7598 145.895 48.2667 145.667C48.2428 145.715 48.2188 145.763 48.1905 145.811C47.6545 146.702 45.7938 147.079 44.907 146.465C44.0203 145.851 44.4473 144.46 44.9833 143.569C45.0094 143.524 45.0399 143.482 45.0704 143.439C44.6767 143.041 44.3126 142.615 43.9811 142.164C43.9375 142.192 43.8917 142.218 43.846 142.242C42.9374 142.704 41.7979 142.279 41.299 141.297C40.8 140.314 41.1312 139.144 42.0376 138.682C42.0855 138.658 42.1334 138.639 42.1814 138.619C42.0147 138.082 41.8873 137.534 41.8001 136.979C41.7522 136.983 41.6955 136.983 41.6432 136.97Z" fill="#D8DEE8"/>
<path d="M42.8699 142.347C41.9613 142.809 40.8218 142.384 40.3229 141.402C39.8239 140.419 40.1551 139.249 41.0615 138.787C41.1094 138.763 41.1573 138.743 41.2053 138.724C41.0386 138.187 40.9112 137.639 40.824 137.083C40.7718 137.086 40.7194 137.086 40.6671 137.083C40.152 137.02 39.6787 136.768 39.3395 136.375C39.0003 135.983 38.8196 135.478 38.8326 134.959C38.8287 134.712 38.8765 134.467 38.973 134.24C39.0694 134.013 39.2122 133.808 39.3924 133.64C39.5726 133.471 39.786 133.342 40.0191 133.261C40.2521 133.179 40.4996 133.148 40.7456 133.168C40.7997 133.173 40.8536 133.181 40.9068 133.192C41.0105 132.659 41.1562 132.135 41.3425 131.625C41.2946 131.597 41.2467 131.569 41.2009 131.536C40.7744 131.24 40.4734 130.796 40.3566 130.29C40.2398 129.784 40.3156 129.253 40.5691 128.799C40.6977 128.589 40.8692 128.407 41.0723 128.267C41.2754 128.126 41.5057 128.03 41.7484 127.984C41.9911 127.938 42.2407 127.943 42.4811 128C42.7216 128.056 42.9475 128.162 43.1444 128.311C43.1902 128.344 43.2315 128.377 43.2751 128.412C43.6268 128.022 44.0109 127.664 44.4233 127.34C44.395 127.292 44.3645 127.244 44.3406 127.194C43.8416 126.211 44.1728 125.039 45.0792 124.579C45.9855 124.119 47.1272 124.542 47.6261 125.525C47.6523 125.575 47.6741 125.627 47.6959 125.679C48.2007 125.537 48.7168 125.438 49.2385 125.383C49.2385 125.329 49.2385 125.274 49.2385 125.22C49.2342 124.973 49.2819 124.727 49.3783 124.5C49.4747 124.272 49.6178 124.068 49.7983 123.899C49.9788 123.73 50.1926 123.601 50.4261 123.52C50.6595 123.439 50.9074 123.408 51.1536 123.429C51.6688 123.491 52.1421 123.744 52.4813 124.136C52.8204 124.529 53.0011 125.034 52.9881 125.553C52.9881 125.61 52.9881 125.664 52.9881 125.721C53.5106 125.869 54.0205 126.059 54.5133 126.287C54.5361 126.238 54.5616 126.19 54.5896 126.143C54.7181 125.934 54.889 125.753 55.0913 125.613C55.2937 125.474 55.5229 125.377 55.7645 125.331C56.0061 125.285 56.2547 125.29 56.4943 125.345C56.7339 125.401 56.9594 125.506 57.1561 125.653C57.583 125.949 57.8844 126.393 58.0016 126.899C58.1189 127.405 58.0435 127.936 57.7902 128.39C57.7618 128.433 57.7313 128.477 57.7008 128.518C58.0945 128.917 58.4586 129.344 58.7902 129.795C58.8337 129.766 58.8788 129.74 58.9253 129.717C59.8317 129.255 60.9734 129.677 61.4723 130.66C61.9713 131.643 61.6401 132.815 60.7315 133.275C60.6836 133.299 60.6357 133.318 60.5877 133.338C60.7554 133.874 60.8829 134.423 60.969 134.978C61.0213 134.978 61.0736 134.978 61.1259 134.978C61.6416 135.041 62.1155 135.294 62.4551 135.687C62.7947 136.08 62.9756 136.586 62.9626 137.105C62.9665 137.352 62.9186 137.597 62.8221 137.824C62.7255 138.052 62.5825 138.256 62.4021 138.425C62.2216 138.594 62.0079 138.723 61.7746 138.804C61.5413 138.885 61.2936 138.916 61.0475 138.896C60.993 138.896 60.9407 138.883 60.8884 138.872C60.7836 139.405 60.6379 139.928 60.4526 140.438C60.5006 140.467 60.5485 140.495 60.5943 140.528C61.0211 140.824 61.3226 141.268 61.4398 141.774C61.557 142.28 61.4816 142.811 61.2283 143.264C61.0994 143.475 60.9279 143.656 60.7247 143.796C60.5216 143.937 60.2913 144.033 60.0488 144.079C59.8062 144.125 59.5567 144.12 59.3163 144.063C59.0759 144.007 58.85 143.901 58.653 143.752C58.6072 143.72 58.5636 143.685 58.5222 143.65C58.1693 144.039 57.7845 144.399 57.3718 144.724C57.4023 144.772 57.4307 144.82 57.4568 144.87C57.9558 145.853 57.6246 147.023 56.716 147.485C55.8075 147.947 54.668 147.522 54.169 146.539C54.1451 146.489 54.1211 146.437 54.1015 146.384C53.5959 146.526 53.0791 146.625 52.5567 146.679C52.56 146.734 52.56 146.789 52.5567 146.844C52.5606 147.091 52.5128 147.336 52.4164 147.563C52.32 147.79 52.1771 147.995 51.9969 148.163C51.8167 148.332 51.6033 148.461 51.3702 148.542C51.1372 148.624 50.8898 148.655 50.6438 148.635C50.1282 148.573 49.6544 148.321 49.3148 147.928C48.9751 147.535 48.7941 147.03 48.8071 146.511C48.8071 146.454 48.807 146.397 48.8201 146.343C48.2979 146.194 47.788 146.004 47.295 145.776C47.271 145.824 47.247 145.872 47.2187 145.92C47.0898 146.131 46.9183 146.312 46.7152 146.452C46.512 146.593 46.2818 146.689 46.0392 146.735C45.7966 146.781 45.5471 146.776 45.3067 146.719C45.0664 146.663 44.8404 146.557 44.6434 146.408C44.2169 146.112 43.9159 145.668 43.7991 145.162C43.6823 144.656 43.758 144.125 44.0116 143.672C44.0377 143.626 44.0682 143.585 44.0987 143.541C43.705 143.143 43.3409 142.717 43.0093 142.266C42.9614 142.297 42.9156 142.323 42.8699 142.347ZM54.1821 142.491C57.4764 140.818 58.6791 136.569 56.8686 133.002C55.058 129.436 50.9183 127.897 47.6218 129.571C44.3253 131.244 43.1248 135.493 44.9354 139.059C46.7459 142.626 50.8878 144.173 54.1712 142.491H54.1821Z" fill="white"/>
<path d="M248.488 245.212C248.488 245.212 248.706 247.371 250.809 247.752C252.689 248.094 254.103 243.549 253.142 242.373C252.906 242.135 252.625 241.947 252.316 241.819C252.007 241.691 251.675 241.626 251.34 241.628C250.857 241.643 249.225 242.264 248.998 243.898C248.673 243.554 248.268 243.462 248.068 243.599C247.815 243.78 247.95 244.31 247.981 244.43C248.064 244.737 248.241 245.01 248.488 245.212Z" fill="url(#paint18_linear)"/>
<path d="M255.114 244.519C255.114 244.519 254.58 245.288 254.166 245.31C253.752 245.332 253.783 244.068 254.009 243.741C254.236 243.414 254.393 242.31 253.844 241.985C253.295 241.66 255.796 241.782 255.114 244.519Z" fill="url(#paint19_linear)"/>
<path d="M247.837 242.07C247.251 242.621 247.218 243.207 247.381 243.955C247.545 244.702 247.76 245.403 246.885 245.371C246.009 245.338 245.795 244.702 245.858 243.955C245.893 243.519 246.717 242.405 247.316 241.961C247.741 241.647 248.083 241.841 247.837 242.07Z" fill="url(#paint20_linear)"/>
<path d="M198.846 271.119C197.71 269.399 191 275.5 186 273.5C183 272 182.291 271.406 181 269C178.5 268.5 177.5 268 176 268.5C175.775 271.319 175.906 274.62 178.781 279.292C182.186 284.826 189.185 289.539 192.492 287.688C193.344 287.21 193.58 286.507 194.558 283.96C198.621 273.362 199.561 272.2 198.846 271.119Z" fill="url(#paint21_linear)"/>
<path d="M182.236 362.882C181.815 365.335 181.394 367.788 180.971 370.24C181.162 370.515 181.629 371.096 182.356 371.172C183.169 371.258 183.826 370.661 184.068 370.412C184.276 367.011 184.85 364.611 185.517 362.882H182.236Z" fill="url(#paint22_linear)"/>
<path d="M193.58 299.843C190.182 306.978 188.43 317.333 186.029 329.086C183.877 339.646 181.32 355.71 180.584 363.042C181.26 363.52 186.258 365.457 186.524 364.477C195.821 330.32 200.778 317.065 202.756 315.011C203.973 313.748 206.247 314.116 206.479 310.331C206.49 310.172 206.49 310.012 206.479 309.853C206.051 304.616 195.967 300.706 193.58 299.843Z" fill="url(#paint23_linear)"/>
<path d="M232.73 345.11C233.39 344.837 234.203 344.871 234.741 345.488C235.796 346.709 234.538 349.314 233.993 350.437C233.371 351.722 232.171 355.265 230.43 354.527C229.655 354.197 230.246 351.863 230.647 351.155C231.152 350.265 231.26 349.242 231.346 348.218C231.402 347.745 231.518 347.28 231.692 346.836C231.929 346.231 232.07 345.385 232.73 345.11Z" fill="url(#paint24_linear)"/>
<path d="M233.252 347.712C232.678 348.721 230.717 347.205 229.72 346.805C228.723 346.406 228.567 346.772 229.002 345.961C229.438 345.15 230.035 344.354 231.123 344.837C232.211 345.32 233.823 346.702 233.252 347.712Z" fill="url(#paint25_linear)"/>
<path d="M196.371 310.465C196.314 310.558 197.904 310.386 197.985 311.015C198.537 315.283 209.037 341.793 211.445 342.513C211.718 342.594 226.307 346.602 230.315 348.563C232.285 346.86 231.671 343.608 231.15 342.958C229.689 341.894 217.46 334.959 216.606 334.854C215.307 330.358 215.061 310.307 209.167 308.172C207.99 307.744 198.282 307.347 196.371 310.465Z" fill="url(#paint26_linear)"/>
<path d="M213.971 308.794C212.139 284.642 206.297 274.766 206.797 271.832C206.063 271.303 203.157 270.464 196.579 271.329C194.885 271.936 193.384 272.987 192.234 274.371C196.856 275.241 201.56 277.874 203.258 281.602C206.194 288.733 200.742 296.701 203.258 302.99C204.58 306.297 206.696 309.226 209.222 311.967C212.096 311.247 214.076 310.185 213.971 308.794Z" fill="url(#paint27_linear)"/>
<path d="M193.04 273.51C191.877 274.636 190.937 275.97 190.268 277.444C188.731 280.969 190.388 283.996 190.885 289.752C191.428 296.067 190.658 306.589 188.881 310.357C188.811 310.51 188.784 310.68 188.805 310.848C189.283 314.492 214.339 313.665 213.971 308.803C212.139 284.651 206.297 274.775 206.797 271.841C206.063 271.313 203.157 270.473 196.579 271.339C195.271 271.829 194.069 272.566 193.04 273.51Z" fill="url(#paint28_linear)"/>
<path d="M197.196 306.271H191.156C189.195 312.658 187.784 320.499 186.029 329.093C183.877 339.653 181.32 355.717 180.584 363.049C181.042 363.312 181.522 363.535 182.019 363.716C183.987 358.116 186.925 352.759 188.989 347.025C191.086 340.315 187.315 332.348 190.247 325.638C192.559 319.272 196.06 312.906 197.196 306.271Z" fill="url(#paint29_linear)"/>
<path d="M198.212 302.153C195.319 302.153 192.782 300.264 190.974 297.676C190.735 302.751 190.017 307.935 188.879 310.35C188.808 310.503 188.782 310.673 188.803 310.84C189.281 314.485 214.337 313.657 213.968 308.796C213.868 307.469 213.753 306.192 213.629 304.948C208.79 302.79 203.501 301.831 198.212 302.153Z" fill="url(#paint30_linear)"/>
<path d="M210.809 304.489C209.674 305.847 207.969 307.285 207.94 309.198C207.911 311.111 211.137 312.321 212.005 310.489C212.873 308.657 212.746 306.773 213.052 304.867C212.273 304.743 211.582 304.621 210.809 304.489Z" fill="url(#paint31_linear)"/>
<path d="M202.445 273.656C202.74 273.021 203.134 272.437 203.612 271.925C205.326 270.213 208.717 270.904 209.987 271.162C213.244 271.824 221.025 274.689 223.883 281.535C227.149 289.357 223.12 300.3 213.122 306.132C211.988 306.055 210.759 305.36 209.659 304.989C214.499 296.297 214.169 291.387 212.565 288.446C209.934 283.632 201.694 280.029 201.749 276.729C201.783 275.67 202.019 274.627 202.445 273.656Z" fill="url(#paint32_linear)"/>
<path d="M175.222 367.487C175.509 367.009 177.64 367.078 178.752 367.583C180.62 368.427 181.798 370.101 182.277 370.307C183.362 370.785 184.316 370.228 184.407 370.247C184.407 370.247 185.216 371.605 184.013 372.38C182.81 373.155 173.45 370.41 175.222 367.487Z" fill="#444B8C"/>
<path d="M200.816 266.336C200.816 266.336 200.661 270.275 201.005 271.002C201.35 271.729 200.424 272.788 198.521 273.271C196.617 273.754 197.932 269.378 197.932 269.378L200.816 266.336Z" fill="url(#paint33_linear)"/>
<path d="M194.685 265.478C194.216 265.023 193.898 264.435 193.775 263.793C193.653 263.151 193.732 262.486 194.001 261.891C194.506 260.867 195.567 260.511 196.203 260.301C198.045 259.686 200.591 259.973 201.785 261.537C202.502 262.462 201.88 264.825 201.785 265.243C201.689 265.722 201.378 265.939 201.132 266.334C200.79 266.882 200.257 267.752 199.393 269.203C199.195 268.786 198.962 268.386 198.695 268.008C198.349 267.519 197.941 267.078 197.483 266.693C196.256 265.707 195.532 266.219 194.685 265.478Z" fill="url(#paint34_linear)"/>
<path d="M200.785 267.855C200.785 267.855 199.972 270.15 197.466 270.509C195.226 270.829 193.858 265.937 195.051 264.588C195.448 264.136 196.361 263.792 197.174 263.847C197.653 263.878 197.846 264.036 198.633 264.072C199.35 264.105 199.535 263.988 199.779 264.12C200.085 264.282 200.386 264.78 200.257 266.32C200.589 265.803 201.06 265.533 201.452 265.628C201.589 265.669 201.712 265.747 201.806 265.853C202.239 266.353 201.876 267.185 200.785 267.855Z" fill="url(#paint35_linear)"/>
<path d="M199.817 263.802C199.726 263.904 200.137 264.234 200.278 264.792C200.556 265.875 199.726 267.422 198.619 267.769C197.966 267.974 197.698 267.611 196.569 267.726C196.02 267.784 195.483 267.929 194.979 268.156C194.886 269.428 195.457 270.547 196.38 270.942C197.368 271.358 198.394 270.765 198.824 270.516C199.111 270.349 200.02 269.82 200.357 268.804C200.697 267.747 200.049 267.29 200.532 266.52C200.771 266.133 201.156 265.908 201.424 265.2C201.481 265.045 201.526 264.885 201.56 264.722C200.862 264.249 199.946 263.653 199.817 263.802Z" fill="url(#paint36_linear)"/>
<path d="M195.876 268.433C196.324 268.521 196.786 268.496 197.222 268.362C197.26 268.362 197.308 268.362 197.318 268.362C197.354 268.436 196.897 268.897 196.38 268.864C196.015 268.838 195.675 268.567 195.704 268.474C195.716 268.448 195.797 268.436 195.876 268.433Z" fill="url(#paint37_linear)"/>
<path d="M335.593 238.044C335.293 238.032 321.348 237.618 315.831 237.454C315.659 237.449 315.491 237.393 315.351 237.291C315.212 237.189 315.106 237.047 315.049 236.884C314.991 236.721 314.984 236.545 315.029 236.378C315.075 236.211 315.169 236.062 315.301 235.95L328.263 224.879L335.593 238.044Z" fill="white"/>
<path d="M329.067 199.708L385.808 199.001C386.093 198.992 386.376 199.04 386.642 199.142C386.907 199.244 387.149 199.399 387.354 199.597C387.558 199.795 387.721 200.032 387.832 200.294C387.943 200.556 388 200.838 388 201.122V237.691C388.001 237.983 387.941 238.273 387.825 238.541C387.709 238.809 387.538 239.05 387.324 239.249C387.11 239.448 386.857 239.601 386.582 239.698C386.306 239.795 386.013 239.834 385.721 239.812L328.981 237.739C328.447 237.698 327.947 237.457 327.584 237.063C327.22 236.67 327.019 236.153 327.02 235.618V201.826C327.021 201.277 327.235 200.749 327.616 200.354C327.998 199.959 328.518 199.727 329.067 199.708Z" fill="#D8DEE8"/>
<path d="M327.248 199.708L383.989 199.001C384.274 198.992 384.557 199.04 384.823 199.142C385.088 199.244 385.33 199.399 385.535 199.597C385.739 199.795 385.902 200.032 386.013 200.294C386.124 200.556 386.181 200.838 386.181 201.122V237.691C386.182 237.983 386.122 238.272 386.006 238.54C385.89 238.808 385.72 239.049 385.506 239.249C385.292 239.448 385.039 239.601 384.764 239.698C384.488 239.795 384.196 239.833 383.904 239.812L327.164 237.739C326.629 237.698 326.13 237.457 325.767 237.063C325.403 236.67 325.202 236.153 325.203 235.618V201.826C325.204 201.277 325.417 200.749 325.799 200.354C326.18 199.96 326.7 199.728 327.248 199.708Z" fill="white"/>
<path d="M331.759 205.577H348.81C349.138 205.577 349.453 205.707 349.685 205.939C349.917 206.171 350.047 206.486 350.047 206.814V232.583C350.047 232.748 350.014 232.912 349.95 233.064C349.885 233.217 349.791 233.355 349.672 233.47C349.554 233.586 349.413 233.676 349.259 233.736C349.105 233.796 348.94 233.825 348.775 233.82L331.724 233.366C331.401 233.357 331.095 233.223 330.87 232.992C330.644 232.761 330.518 232.451 330.519 232.128V206.816C330.518 206.653 330.55 206.492 330.613 206.341C330.675 206.19 330.766 206.054 330.882 205.939C330.997 205.823 331.134 205.732 331.284 205.67C331.435 205.608 331.596 205.576 331.759 205.577Z" fill="#F4F7FA"/>
<path d="M342.144 209.119L369.719 208.849C369.939 208.846 370.158 208.888 370.362 208.97C370.565 209.053 370.751 209.175 370.907 209.33C371.064 209.485 371.188 209.669 371.272 209.873C371.357 210.076 371.4 210.294 371.4 210.514V227.792C371.399 228.364 371.172 228.913 370.769 229.319C370.365 229.724 369.818 229.954 369.245 229.958H369.152L342.07 229.383C341.51 229.36 340.981 229.121 340.594 228.716C340.206 228.312 339.99 227.773 339.991 227.212V211.291C339.993 210.719 340.22 210.171 340.623 209.764C341.025 209.358 341.572 209.126 342.144 209.119ZM341.997 211.735L351.887 220.663C352.464 221.189 353.203 221.5 353.981 221.547C354.76 221.593 355.53 221.371 356.165 220.918L369.122 211.77C369.226 211.697 369.296 211.586 369.318 211.46C369.339 211.335 369.31 211.206 369.237 211.102C369.163 210.998 369.052 210.928 368.926 210.906C368.801 210.885 368.672 210.914 368.568 210.987L355.612 220.135C355.156 220.461 354.602 220.622 354.043 220.589C353.483 220.557 352.951 220.334 352.536 219.958L342.637 211.03C342.592 210.981 342.537 210.943 342.477 210.917C342.416 210.891 342.35 210.877 342.284 210.878C342.218 210.878 342.152 210.893 342.092 210.92C342.031 210.947 341.977 210.986 341.933 211.035C341.888 211.084 341.854 211.142 341.833 211.205C341.812 211.267 341.804 211.334 341.81 211.4C341.816 211.466 341.836 211.53 341.868 211.588C341.9 211.646 341.943 211.697 341.996 211.737L341.997 211.735Z" fill="url(#paint38_linear)"/>
<defs>
<filter id="filter0_f" x="22" y="261" width="329" height="48.5" filterUnits="userSpaceOnUse" color-interpolation-filters="sRGB">
<feFlood flood-opacity="0" result="BackgroundImageFix"/>
<feBlend mode="normal" in="SourceGraphic" in2="BackgroundImageFix" result="shape"/>
<feGaussianBlur stdDeviation="2" result="effect1_foregroundBlur"/>
</filter>
<linearGradient id="paint0_linear" x1="-23168.8" y1="20092.7" x2="-18532.8" y2="25910.1" gradientUnits="userSpaceOnUse">
<stop stop-color="#FF9085"/>
<stop offset="1" stop-color="#FB6FBB"/>
</linearGradient>
<linearGradient id="paint1_linear" x1="-23313.8" y1="19885.7" x2="-18677.8" y2="25703.1" gradientUnits="userSpaceOnUse">
<stop stop-color="#FF9085"/>
<stop offset="1" stop-color="#FB6FBB"/>
</linearGradient>
<linearGradient id="paint2_linear" x1="-18723.1" y1="15890" x2="-15022.4" y2="20578.4" gradientUnits="userSpaceOnUse">
<stop stop-color="#FF9085"/>
<stop offset="1" stop-color="#FB6FBB"/>
</linearGradient>
<linearGradient id="paint3_linear" x1="-18724.1" y1="15964" x2="-15023.4" y2="20652.4" gradientUnits="userSpaceOnUse">
<stop stop-color="#FF9085"/>
<stop offset="1" stop-color="#FB6FBB"/>
</linearGradient>
<linearGradient id="paint4_linear" x1="-12788.4" y1="11013.5" x2="-10233.1" y2="14250.8" gradientUnits="userSpaceOnUse">
<stop stop-color="#FF9085"/>
<stop offset="1" stop-color="#FB6FBB"/>
</linearGradient>
<linearGradient id="paint5_linear" x1="-9166.07" y1="7935.48" x2="-7315.69" y2="10279.7" gradientUnits="userSpaceOnUse">
<stop stop-color="#FF9085"/>
<stop offset="1" stop-color="#FB6FBB"/>
</linearGradient>
<linearGradient id="paint6_linear" x1="-18630.1" y1="15991" x2="-14929.4" y2="20679.4" gradientUnits="userSpaceOnUse">
<stop stop-color="#FF9085"/>
<stop offset="1" stop-color="#FB6FBB"/>
</linearGradient>
<linearGradient id="paint7_linear" x1="-18951.1" y1="15967" x2="-15250.4" y2="20655.4" gradientUnits="userSpaceOnUse">
<stop stop-color="#FF9085"/>
<stop offset="1" stop-color="#FB6FBB"/>
</linearGradient>
<linearGradient id="paint8_linear" x1="149.767" y1="160.666" x2="48.5717" y2="160.666" gradientUnits="userSpaceOnUse">
<stop stop-color="#AA80F9"/>
<stop offset="1" stop-color="#6165D7"/>
</linearGradient>
<linearGradient id="paint9_linear" x1="12.2449" y1="120.712" x2="56.4612" y2="239.394" gradientUnits="userSpaceOnUse">
<stop stop-color="#E38DDD"/>
<stop offset="1" stop-color="#9571F6"/>
</linearGradient>
<linearGradient id="paint10_linear" x1="92.5396" y1="244.284" x2="32.0413" y2="244.284" gradientUnits="userSpaceOnUse">
<stop stop-color="#FF9085"/>
<stop offset="1" stop-color="#FB6FBB"/>
</linearGradient>
<linearGradient id="paint11_linear" x1="297.936" y1="191.901" x2="406.474" y2="203.423" gradientUnits="userSpaceOnUse">
<stop stop-color="#FFC444"/>
<stop offset="1" stop-color="#F36F56"/>
</linearGradient>
<linearGradient id="paint12_linear" x1="-213876" y1="62539" x2="-267776" y2="240923" gradientUnits="userSpaceOnUse">
<stop stop-color="#FFC444"/>
<stop offset="1" stop-color="#F36F56"/>
</linearGradient>
<linearGradient id="paint13_linear" x1="-234647" y1="47523.6" x2="-236221" y2="-41427.9" gradientUnits="userSpaceOnUse">
<stop stop-color="#FFC444"/>
<stop offset="1" stop-color="#F36F56"/>
</linearGradient>
<linearGradient id="paint14_linear" x1="-213874" y1="61801.6" x2="-266606" y2="238417" gradientUnits="userSpaceOnUse">
<stop stop-color="#FFC444"/>
<stop offset="1" stop-color="#F36F56"/>
</linearGradient>
<linearGradient id="paint15_linear" x1="-207154" y1="38803.3" x2="-240016" y2="-93087.5" gradientUnits="userSpaceOnUse">
<stop stop-color="#FFC444"/>
<stop offset="1" stop-color="#F36F56"/>
</linearGradient>
<linearGradient id="paint16_linear" x1="-244777" y1="47378.1" x2="-288252" y2="208992" gradientUnits="userSpaceOnUse">
<stop stop-color="#FFC444"/>
<stop offset="1" stop-color="#F36F56"/>
</linearGradient>
<linearGradient id="paint17_linear" x1="-2409.88" y1="1493.72" x2="-2958.71" y2="2481.74" gradientUnits="userSpaceOnUse">
<stop stop-color="#FFC444"/>
<stop offset="1" stop-color="#F36F56"/>
</linearGradient>
<linearGradient id="paint18_linear" x1="5467.69" y1="6519.77" x2="5361.39" y2="7056.77" gradientUnits="userSpaceOnUse">
<stop stop-color="#FFC444"/>
<stop offset="1" stop-color="#F36F56"/>
</linearGradient>
<linearGradient id="paint19_linear" x1="-842.541" y1="3017.36" x2="-837.514" y2="3190.28" gradientUnits="userSpaceOnUse">
<stop stop-color="#FFC444"/>
<stop offset="1" stop-color="#F36F56"/>
</linearGradient>
<linearGradient id="paint20_linear" x1="-1373" y1="3115.61" x2="-1368.99" y2="3300.47" gradientUnits="userSpaceOnUse">
<stop stop-color="#FFC444"/>
<stop offset="1" stop-color="#F36F56"/>
</linearGradient>
<linearGradient id="paint21_linear" x1="25625.1" y1="16381.2" x2="34723.1" y2="22006.6" gradientUnits="userSpaceOnUse">
<stop stop-color="#311944"/>
<stop offset="1" stop-color="#893976"/>
</linearGradient>
<linearGradient id="paint22_linear" x1="5303.02" y1="9136.39" x2="6655.06" y2="10198.1" gradientUnits="userSpaceOnUse">
<stop stop-color="#FFC444"/>
<stop offset="1" stop-color="#F36F56"/>
</linearGradient>
<linearGradient id="paint23_linear" x1="33404.7" y1="48703" x2="23062.3" y2="69267.2" gradientUnits="userSpaceOnUse">
<stop stop-color="#AA80F9"/>
<stop offset="1" stop-color="#6165D7"/>
</linearGradient>
<linearGradient id="paint24_linear" x1="7842.97" y1="11355.6" x2="7932.17" y2="11367.5" gradientUnits="userSpaceOnUse">
<stop stop-color="#40447E"/>
<stop offset="1" stop-color="#3C3B6B"/>
</linearGradient>
<linearGradient id="paint25_linear" x1="6199.03" y1="3482.75" x2="6655.37" y2="4377.51" gradientUnits="userSpaceOnUse">
<stop stop-color="#FFC444"/>
<stop offset="1" stop-color="#F36F56"/>
</linearGradient>
<linearGradient id="paint26_linear" x1="41585.1" y1="31614" x2="50109.1" y2="43174.7" gradientUnits="userSpaceOnUse">
<stop stop-color="#AA80F9"/>
<stop offset="1" stop-color="#6165D7"/>
</linearGradient>
<linearGradient id="paint27_linear" x1="27273.8" y1="29740.6" x2="31141.9" y2="37013.5" gradientUnits="userSpaceOnUse">
<stop stop-color="#311944"/>
<stop offset="1" stop-color="#893976"/>
</linearGradient>
<linearGradient id="paint28_linear" x1="30690.4" y1="29730" x2="34390.7" y2="37571.3" gradientUnits="userSpaceOnUse">
<stop stop-color="#311944"/>
<stop offset="1" stop-color="#893976"/>
</linearGradient>
<linearGradient id="paint29_linear" x1="20925.1" y1="46771.8" x2="10297.5" y2="62084.1" gradientUnits="userSpaceOnUse">
<stop stop-color="#AA80F9"/>
<stop offset="1" stop-color="#6165D7"/>
</linearGradient>
<linearGradient id="paint30_linear" x1="31454.3" y1="13025.6" x2="31713" y2="14524" gradientUnits="userSpaceOnUse">
<stop stop-color="#311944"/>
<stop offset="1" stop-color="#893976"/>
</linearGradient>
<linearGradient id="paint31_linear" x1="6852.61" y1="6476.63" x2="6935.15" y2="6568.68" gradientUnits="userSpaceOnUse">
<stop stop-color="#FFC444"/>
<stop offset="1" stop-color="#F36F56"/>
</linearGradient>
<linearGradient id="paint32_linear" x1="28700.8" y1="23929.5" x2="34647.6" y2="30370.2" gradientUnits="userSpaceOnUse">
<stop stop-color="#311944"/>
<stop offset="1" stop-color="#893976"/>
</linearGradient>
<linearGradient id="paint33_linear" x1="-897.706" y1="5855.4" x2="-968.968" y2="5525.98" gradientUnits="userSpaceOnUse">
<stop stop-color="#FFC444"/>
<stop offset="1" stop-color="#F36F56"/>
</linearGradient>
<linearGradient id="paint34_linear" x1="7565.73" y1="6072.99" x2="7226.38" y2="5587.73" gradientUnits="userSpaceOnUse">
<stop stop-color="#311944"/>
<stop offset="1" stop-color="#6B3976"/>
</linearGradient>
<linearGradient id="paint35_linear" x1="-2749.66" y1="5581.42" x2="-2660.27" y2="6166.02" gradientUnits="userSpaceOnUse">
<stop stop-color="#FFC444"/>
<stop offset="1" stop-color="#F36F56"/>
</linearGradient>
<linearGradient id="paint36_linear" x1="5975.31" y1="4915.08" x2="5704.3" y2="4531.37" gradientUnits="userSpaceOnUse">
<stop stop-color="#311944"/>
<stop offset="1" stop-color="#6B3976"/>
</linearGradient>
<linearGradient id="paint37_linear" x1="196.256" y1="267.643" x2="197.084" y2="270.178" gradientUnits="userSpaceOnUse">
<stop stop-color="#FFC444"/>
<stop offset="1" stop-color="#F36F56"/>
</linearGradient>
<linearGradient id="paint38_linear" x1="-13846.5" y1="12173.9" x2="-11051.3" y2="15686.5" gradientUnits="userSpaceOnUse">
<stop stop-color="#FF9085"/>
<stop offset="1" stop-color="#FB6FBB"/>
</linearGradient>
</defs>
</svg>
